<?xml version="1.0" encoding="iso-8859-1"?>
<!-- Generator: Adobe Illustrator 16.0.0, SVG Export Plug-In . SVG Version: 6.00 Build 0)  -->
<!DOCTYPE svg PUBLIC "-//W3C//DTD SVG 1.1//EN" "http://www.w3.org/Graphics/SVG/1.1/DTD/svg11.dtd">
<svg version="1.1" id="Capa_1" xmlns="http://www.w3.org/2000/svg" xmlns:xlink="http://www.w3.org/1999/xlink" x="0px" y="0px"
	 width="476.91px" height="476.91px" viewBox="0 0 476.91 476.91" style="enable-background:new 0 0 476.91 476.91;"
	 xml:space="preserve">
<g>
	<g>
		<path d="M241.663,168.869c20.789,0,37.581-16.907,37.581-37.629c0-20.855-16.792-37.628-37.581-37.628
			c-20.712,0-37.619,16.772-37.619,37.628C204.054,151.962,220.951,168.869,241.663,168.869z"/>
		<path d="M21.143,126.947h7.918c11.676,0,21.143-9.467,21.143-21.143V87.53h64.757c0.057,0.096,0.077,0.201,0.134,0.287
			l71.977,119.751v105.197l-49.85-7.048c-11.618-1.606-22.711,5.384-26.182,16.581l-29.376,94.603
			c-3.911,12.604,3.137,26.01,15.74,29.921c12.603,3.882,26-3.127,29.921-15.74l23.342-75.171l86.856,12.288
			c2.238,0.315,4.514,0.306,6.732-0.01l85.699-12.249l23.332,75.142c3.185,10.251,12.623,16.83,22.826,16.83
			c2.353,0,4.733-0.354,7.096-1.08c12.603-3.911,19.66-17.309,15.739-29.922l-29.376-94.602
			c-3.48-11.217-14.64-18.293-26.211-16.571l-47.152,6.741V204.671c0-1.253-0.134-2.477-0.373-3.662l68.037-113.182
			c0.058-0.096,0.086-0.191,0.134-0.287h62.701v18.274c0,11.676,9.467,21.143,21.143,21.143h7.918
			c11.676,0,21.143-9.467,21.143-21.143V50.141c0-11.676-9.467-21.143-21.143-21.143h-7.918c-11.676,0-21.143,9.467-21.143,21.143
			v18.274h-62.759c-1.567-2.707-3.738-5.106-6.617-6.828c-9.046-5.441-20.808-2.505-26.239,6.541l-0.172,0.287H148.047l-0.172-0.287
			c-5.432-9.056-17.193-11.982-26.24-6.541c-2.869,1.722-5.049,4.122-6.617,6.828H50.203V50.141
			c0-11.676-9.467-21.143-21.143-21.143h-7.918C9.467,28.998,0,38.465,0,50.141v55.673C0,117.48,9.467,126.947,21.143,126.947z
			 M319.445,87.53l-58.915,98.016h-42.065L159.55,87.53H319.445z"/>
	</g>
</g>
<g>
</g>
<g>
</g>
<g>
</g>
<g>
</g>
<g>
</g>
<g>
</g>
<g>
</g>
<g>
</g>
<g>
</g>
<g>
</g>
<g>
</g>
<g>
</g>
<g>
</g>
<g>
</g>
<g>
</g>
</svg>
